<svg xmlns="http://www.w3.org/2000/svg" xmlns:xlink="http://www.w3.org/1999/xlink"><defs>
<clipPath id="clip0">
<rect width="39" height="37" fill="white"/>
</clipPath>

		<rect id="SVGID_1_" y="0" width="48" height="48"/>
	</defs><symbol id="book" viewBox="0 0 42 42">
<path d="M32.9407 9.66406C32.7386 9.66406 32.5398 9.58187 32.3971 9.43888C32.2538 9.29588 32.1716 9.09713 32.1716 8.89502C32.1716 8.6929 32.2538 8.4944 32.3971 8.3514C32.5398 8.20841 32.7386 8.12598 32.9407 8.12598C33.1428 8.12598 33.3415 8.20841 33.4843 8.3514C33.6275 8.4944 33.7097 8.6929 33.7097 8.89502C33.7097 9.09713 33.6275 9.29588 33.4843 9.43888C33.3415 9.58187 33.1428 9.66406 32.9407 9.66406Z"/>
<path d="M30.0566 9.66406H24.9425C24.5176 9.66406 24.1735 9.31991 24.1735 8.89502C24.1735 8.47036 24.5176 8.12598 24.9425 8.12598H30.0566C30.4815 8.12598 30.8257 8.47036 30.8257 8.89502C30.8257 9.31991 30.4815 9.66406 30.0566 9.66406Z"/>
<path d="M32.9407 14.5859H24.9426C24.5177 14.5859 24.1736 14.2418 24.1736 13.8169C24.1736 13.3922 24.5177 13.0479 24.9426 13.0479H32.9407C33.3656 13.0479 33.7097 13.3922 33.7097 13.8169C33.7097 14.2418 33.3656 14.5859 32.9407 14.5859Z"/>
<path d="M32.9407 19.5078H24.9426C24.5177 19.5078 24.1736 19.1637 24.1736 18.7388C24.1736 18.3141 24.5177 17.9697 24.9426 17.9697H32.9407C33.3656 17.9697 33.7097 18.3141 33.7097 18.7388C33.7097 19.1637 33.3656 19.5078 32.9407 19.5078Z"/>
<path d="M32.9407 24.4297H24.9426C24.5177 24.4297 24.1736 24.0855 24.1736 23.6606C24.1736 23.236 24.5177 22.8916 24.9426 22.8916H32.9407C33.3656 22.8916 33.7097 23.236 33.7097 23.6606C33.7097 24.0855 33.3656 24.4297 32.9407 24.4297Z"/>
<path d="M24.1736 28.5825C24.1736 28.1579 24.5177 27.8135 24.9426 27.8135H32.9407C33.3656 27.8135 33.7097 28.1579 33.7097 28.5825C33.7097 29.0074 33.3656 29.3516 32.9407 29.3516H24.9426C24.5177 29.3516 24.1736 29.0074 24.1736 28.5825Z"/>
<path d="M17.8672 8.89502C17.8672 9.31991 17.5228 9.66406 17.0981 9.66406H9.10011C8.67522 9.66406 8.33107 9.31991 8.33107 8.89502C8.33107 8.47036 8.67522 8.12598 9.10011 8.12598H17.0981C17.5228 8.12598 17.8672 8.47036 17.8672 8.89502Z"/>
<path d="M9.10011 13.0479H17.0981C17.5228 13.0479 17.8672 13.3922 17.8672 13.8169C17.8672 14.2418 17.5228 14.5859 17.0981 14.5859H9.10011C8.67522 14.5859 8.33107 14.2418 8.33107 13.8169C8.33107 13.3922 8.67522 13.0479 9.10011 13.0479Z"/>
<path d="M9.10011 17.9697H17.0981C17.5228 17.9697 17.8672 18.3141 17.8672 18.7388C17.8672 19.1637 17.5228 19.5078 17.0981 19.5078H9.10011C8.67522 19.5078 8.33107 19.1637 8.33107 18.7388C8.33107 18.3141 8.67522 17.9697 9.10011 17.9697Z"/>
<path d="M9.10011 22.8916H17.0981C17.5228 22.8916 17.8672 23.236 17.8672 23.6606C17.8672 24.0855 17.5228 24.4297 17.0981 24.4297H9.10011C8.67522 24.4297 8.33107 24.0855 8.33107 23.6606C8.33107 23.236 8.67522 22.8916 9.10011 22.8916Z"/>
<path d="M9.10011 27.8135H17.0981C17.5228 27.8135 17.8672 28.1579 17.8672 28.5825C17.8672 29.0074 17.5228 29.3516 17.0981 29.3516H9.10011C8.67522 29.3516 8.33107 29.0074 8.33107 28.5825C8.33107 28.1579 8.67522 27.8135 9.10011 27.8135Z"/>
<path d="M2.10206 8.35693H4.40919V4.97314C4.40919 4.54849 4.75333 4.2041 5.17823 4.2041H16.4036C18.2529 4.2041 19.9477 5.07769 21.0205 6.51099C22.0933 5.07769 23.7881 4.2041 25.6374 4.2041H36.8628C37.2877 4.2041 37.6318 4.54849 37.6318 4.97314V8.35693H39.939C40.3639 8.35693 40.708 8.70132 40.708 9.12598V36.6577C40.708 37.0826 40.3639 37.4268 39.939 37.4268H13.3815C12.9566 37.4268 12.6125 37.0826 12.6125 36.6577C12.6125 36.2331 12.9566 35.8887 13.3815 35.8887H20.3161C20.3152 35.8865 20.3142 35.8841 20.3135 35.8817C20.3125 35.8803 20.3116 35.8788 20.3111 35.8774C19.6509 34.296 18.1171 33.2739 16.4036 33.2739H5.17823C4.75333 33.2739 4.40919 32.9298 4.40919 32.5049V9.89502H2.8711V35.8887H7.09411C7.519 35.8887 7.86315 36.2331 7.86315 36.6577C7.86315 37.0826 7.519 37.4268 7.09411 37.4268H2.10206C1.67716 37.4268 1.33302 37.0826 1.33302 36.6577V9.12598C1.33302 8.70132 1.67716 8.35693 2.10206 8.35693ZM36.0938 5.74219H25.6374C23.9736 5.74219 22.4793 6.70565 21.7896 8.20937V33.2018C22.8254 32.2751 24.1842 31.7358 25.6374 31.7358H36.0938V5.74219ZM39.1699 9.89502H37.6318V32.5049C37.6318 32.9298 37.2877 33.2739 36.8628 33.2739H25.6374C23.9239 33.2739 22.3901 34.296 21.73 35.8774C21.7295 35.8788 21.7285 35.8803 21.7276 35.8817C21.7268 35.8841 21.7259 35.8865 21.7249 35.8887H39.1699V9.89502ZM5.94727 31.7358H16.4036C17.8569 31.7358 19.2157 32.2751 20.2515 33.2018V8.20937C19.5617 6.70565 18.0674 5.74219 16.4036 5.74219H5.94727V31.7358Z"/>
<path d="M10.2156 35.8887C10.4177 35.8887 10.6164 35.9711 10.7592 36.1141C10.9024 36.2571 10.9846 36.4556 10.9846 36.6577C10.9846 36.8598 10.9024 37.0586 10.7592 37.2016C10.6164 37.3446 10.4177 37.4268 10.2156 37.4268C10.0135 37.4268 9.8147 37.3446 9.67195 37.2016C9.52871 37.0586 9.44652 36.8598 9.44652 36.6577C9.44652 36.4556 9.52871 36.2571 9.67195 36.1141C9.8147 35.9711 10.0135 35.8887 10.2156 35.8887Z"/>
</symbol><symbol id="business-process" viewBox="0 0 39 37">
<g clip-path="url(#clip0)">
<path d="M35.7499 25.2835C34.7099 25.2835 33.8649 24.5435 33.7999 23.5568C36.2699 22.5701 37.7649 20.2268 37.6999 17.6985C37.6999 17.5751 37.6999 17.3285 37.6999 17.2668C37.6999 14.1835 35.0999 11.7168 31.8499 11.7168H24.0499C23.6599 11.7168 23.3999 11.9635 23.3999 12.3335C23.3999 13.7518 23.9849 15.1085 24.9599 16.0951C24.8299 16.7118 24.6999 17.2668 24.6999 17.8835C24.6999 20.3501 26.2599 22.5701 28.5999 23.5568C28.5349 24.5435 27.6899 25.2835 26.6499 25.2835C24.8299 25.2835 23.3999 26.6401 23.3999 28.3668V37.0001H24.6999V28.3668C24.6999 27.3801 25.5449 26.5168 26.5849 26.5168L29.7699 27.0101L28.5999 34.4101C28.5999 34.5951 28.6649 34.7801 28.7949 34.9651L30.7449 36.8151C31.0049 37.0618 31.3949 37.0618 31.6549 36.8151L33.6049 34.9651C33.7349 34.8418 33.7999 34.6568 33.7999 34.4101L32.6299 27.0101L35.8149 26.5168C36.8549 26.5168 37.6999 27.3801 37.6999 28.3668V37.0001H38.9999V28.3668C38.9999 26.6401 37.5699 25.2835 35.7499 25.2835ZM24.7649 12.9501H31.8499C34.1249 12.9501 36.0099 14.5535 36.3349 16.6501H29.2499C26.9749 16.6501 25.0899 15.0468 24.7649 12.9501ZM31.1999 35.5201L29.9649 34.3485L31.1349 27.1335H31.3299L32.4999 34.3485L31.1999 35.5201ZM31.7849 25.9001H30.6149L28.9249 25.6535C29.5749 25.0985 29.8999 24.2968 29.8999 23.4335V23.1251C29.8999 22.8785 29.7049 22.6318 29.4449 22.5701C27.3649 21.8301 25.9999 19.9801 25.9999 17.8835C25.9999 17.5751 25.9999 17.2668 26.0649 17.0201C26.9749 17.5751 28.0799 17.8835 29.2499 17.8835H36.3999C36.3999 19.9801 35.0349 21.8301 32.9549 22.5085C32.6949 22.5701 32.4999 22.8168 32.4999 23.0635V23.4335C32.4999 24.2351 32.8249 25.0368 33.4749 25.6535L31.7849 25.9001Z"/>
<path d="M35.7501 29.5996H33.8V30.8329H35.7501V29.5996Z"/>
<path d="M38.35 0H0.65C0.26 0 0 0.246667 0 0.616667V3.08333C0 3.45333 0.26 3.7 0.65 3.7H1.3V25.9H0.65C0.26 25.9 0 26.1467 0 26.5167V28.9833C0 29.3533 0.26 29.6 0.65 29.6H17.55V36.3833C17.55 36.7533 17.81 37 18.2 37H20.8C21.19 37 21.45 36.7533 21.45 36.3833V29.6H22.1V28.3667H1.3V27.1333H22.1V25.9H2.6V3.7H36.4V12.3333H37.7V3.7H38.35C38.74 3.7 39 3.45333 39 3.08333V0.616667C39 0.246667 38.74 0 38.35 0ZM18.85 29.6H20.15V35.7667H18.85V29.6ZM37.7 2.46667H1.3V1.23333H37.7V2.46667Z"/>
<path d="M34.4499 4.93359H4.5499C4.1599 4.93359 3.8999 5.18026 3.8999 5.55026V17.8836C3.8999 18.2536 4.1599 18.5003 4.5499 18.5003H23.3999V17.2669H5.1999V13.8136L10.2049 15.4169C10.2699 15.4169 10.3349 15.4786 10.3999 15.4786C10.5949 15.4786 10.7249 15.4169 10.8549 15.2936L14.4299 11.9019L17.9399 13.5669C18.1349 13.6903 18.3949 13.6286 18.5899 13.5053L25.5449 8.63359H27.9499V7.40026H25.3499C25.2199 7.40026 25.0899 7.46193 24.9599 7.52359L18.1349 12.2103L14.5599 10.5453C14.2999 10.4219 14.0399 10.4836 13.7799 10.6686L10.1399 14.1219L5.1999 12.5186V6.16693H33.7999V10.4836H35.0999V5.55026C35.0999 5.18026 34.8399 4.93359 34.4499 4.93359Z"/>
<path d="M21.9051 22.3845L18.6551 19.3012C18.3951 19.0545 18.0051 19.0545 17.7451 19.3012L14.495 22.3845C14.235 22.6312 14.235 23.0012 14.495 23.2479C14.625 23.3712 14.755 23.4329 14.95 23.4329H16.2501V24.6662C16.2501 25.0362 16.5101 25.2829 16.9001 25.2829H19.5001C19.8901 25.2829 20.1501 25.0362 20.1501 24.6662V23.4329H21.4501C21.8401 23.4329 22.1001 23.1862 22.1001 22.8162C22.1001 22.6312 22.0351 22.5079 21.9051 22.3845ZM19.5001 22.1995C19.1101 22.1995 18.8501 22.4462 18.8501 22.8162V24.0496H17.5501V22.8162C17.5501 22.4462 17.2901 22.1995 16.9001 22.1995H16.5101L18.2001 20.5962L19.8901 22.1995H19.5001Z"/>
<path d="M13.4551 21.1512C13.3251 21.0279 13.1951 20.9662 13.0001 20.9662H11.7001V19.7329C11.7001 19.3629 11.4401 19.1162 11.0501 19.1162H8.45009C8.0601 19.1162 7.8001 19.3629 7.8001 19.7329V20.9662H6.5001C6.1101 20.9662 5.8501 21.2129 5.8501 21.5829C5.8501 21.7679 5.9151 21.8912 6.0451 22.0145L9.29509 25.0979C9.55509 25.3446 9.94509 25.3446 10.2051 25.0979L13.4551 22.0145C13.7151 21.7679 13.7151 21.3979 13.4551 21.1512ZM9.75009 23.8029L8.0601 22.1995H8.45009C8.84009 22.1995 9.10009 21.9529 9.10009 21.5829V20.3495H10.4001V21.5829C10.4001 21.9529 10.6601 22.1995 11.0501 22.1995H11.4401L9.75009 23.8029Z"/>
<path d="M31.8499 7.39987V6.7832H30.5499V7.39987H29.8999V8.6332H30.5499V9.24987H31.8499V8.6332H32.4999V7.39987H31.8499Z"/>
<path d="M14.95 8.01706V7.40039H13.65V8.01706H13V9.25039H13.65V9.86706H14.95V9.25039H15.6V8.01706H14.95Z"/>
</g>

</symbol><symbol id="consalting-project" viewBox="0 0 39 37">
<path d="M37.05 11.1H29.9V9.25C29.8914 9.18315 29.8775 9.11691 29.8584 9.05217C29.8511 9.0323 29.846 9.01393 29.8368 8.99466C29.8054 8.92752 29.7613 8.86639 29.707 8.814L20.607 0.180664C20.5521 0.128874 20.4877 0.0870198 20.4172 0.0572103C20.3963 0.0481771 20.3763 0.0430583 20.3522 0.0358317C20.2985 0.0183675 20.243 0.0081299 20.1865 0.00481771C20.1773 0.00692546 20.1643 0 20.15 0H3.25C1.45583 0.00210775 0.00222168 1.38118 0 3.08333V33.9167C0.00222168 35.6188 1.45583 36.9979 3.25 37H26.65C28.1937 36.9982 29.5239 35.9681 29.8349 34.5333H37.05C38.1269 34.5333 39 33.705 39 32.6833V12.95C39 11.9283 38.1269 11.1 37.05 11.1ZM27.6809 8.63333H22.75C21.6731 8.63333 20.8 7.80499 20.8 6.78333V2.10534L27.6809 8.63333ZM26.65 35.7667H3.25C2.17312 35.7667 1.3 34.9383 1.3 33.9167V3.08333C1.3 2.06168 2.17312 1.23333 3.25 1.23333H19.5V6.78333C19.5022 8.48549 20.9558 9.86456 22.75 9.86667H28.6V11.1H21.45C20.3731 11.1 19.5 11.9283 19.5 12.95V32.6833C19.5 33.705 20.3731 34.5333 21.45 34.5333H28.4803C28.2058 35.2698 27.4733 35.7634 26.65 35.7667ZM37.7 32.6833C37.7 33.0239 37.409 33.3 37.05 33.3H21.45C21.091 33.3 20.8 33.0239 20.8 32.6833V12.95C20.8 12.6094 21.091 12.3333 21.45 12.3333H37.05C37.409 12.3333 37.7 12.6094 37.7 12.95V32.6833Z"/>
<path d="M35.7501 13.5664H22.7501C22.3911 13.5664 22.1001 13.8425 22.1001 14.1831V17.8831C22.1001 18.2236 22.3911 18.4997 22.7501 18.4997H35.7501C36.1091 18.4997 36.4001 18.2236 36.4001 17.8831V14.1831C36.4001 13.8425 36.1091 13.5664 35.7501 13.5664ZM35.1001 17.2664H23.4001V14.7997H35.1001V17.2664Z"/>
<path d="M24.0501 19.7334C22.9732 19.7334 22.1001 20.5617 22.1001 21.5834C22.1001 22.6051 22.9732 23.4334 24.0501 23.4334C25.127 23.4334 26.0001 22.6051 26.0001 21.5834C26.0001 20.5617 25.127 19.7334 24.0501 19.7334ZM24.0501 22.2001C23.6911 22.2001 23.4001 21.9239 23.4001 21.5834C23.4001 21.2428 23.6911 20.9667 24.0501 20.9667C24.4091 20.9667 24.7001 21.2428 24.7001 21.5834C24.7001 21.9239 24.4091 22.2001 24.0501 22.2001Z"/>
<path d="M29.25 19.7334C28.1732 19.7334 27.3 20.5617 27.3 21.5834C27.3 22.6051 28.1732 23.4334 29.25 23.4334C30.3269 23.4334 31.2001 22.6051 31.2001 21.5834C31.2001 20.5617 30.3269 19.7334 29.25 19.7334ZM29.25 22.2001C28.8911 22.2001 28.6 21.9239 28.6 21.5834C28.6 21.2428 28.8911 20.9667 29.25 20.9667C29.609 20.9667 29.9 21.2428 29.9 21.5834C29.9 21.9239 29.609 22.2001 29.25 22.2001Z"/>
<path d="M34.45 19.7334C33.3731 19.7334 32.5 20.5617 32.5 21.5834C32.5 22.6051 33.3731 23.4334 34.45 23.4334C35.5269 23.4334 36.4 22.6051 36.4 21.5834C36.4 20.5617 35.5269 19.7334 34.45 19.7334ZM34.45 22.2001C34.091 22.2001 33.8 21.9239 33.8 21.5834C33.8 21.2428 34.091 20.9667 34.45 20.9667C34.809 20.9667 35.1 21.2428 35.1 21.5834C35.1 21.9239 34.809 22.2001 34.45 22.2001Z"/>
<path d="M24.0501 24.0498C22.9732 24.0498 22.1001 24.8781 22.1001 25.8998C22.1001 26.9215 22.9732 27.7498 24.0501 27.7498C25.127 27.7498 26.0001 26.9215 26.0001 25.8998C26.0001 24.8781 25.127 24.0498 24.0501 24.0498ZM24.0501 26.5165C23.6911 26.5165 23.4001 26.2404 23.4001 25.8998C23.4001 25.5593 23.6911 25.2831 24.0501 25.2831C24.4091 25.2831 24.7001 25.5593 24.7001 25.8998C24.7001 26.2404 24.4091 26.5165 24.0501 26.5165Z"/>
<path d="M29.25 24.0498C28.1732 24.0498 27.3 24.8781 27.3 25.8998C27.3 26.9215 28.1732 27.7498 29.25 27.7498C30.3269 27.7498 31.2001 26.9215 31.2001 25.8998C31.2001 24.8781 30.3269 24.0498 29.25 24.0498ZM29.25 26.5165C28.8911 26.5165 28.6 26.2404 28.6 25.8998C28.6 25.5593 28.8911 25.2831 29.25 25.2831C29.609 25.2831 29.9 25.5593 29.9 25.8998C29.9 26.2404 29.609 26.5165 29.25 26.5165Z"/>
<path d="M34.45 24.0498C33.3731 24.0498 32.5 24.8781 32.5 25.8998C32.5 26.9215 33.3731 27.7498 34.45 27.7498C35.5269 27.7498 36.4 26.9215 36.4 25.8998C36.4 24.8781 35.5269 24.0498 34.45 24.0498ZM34.45 26.5165C34.091 26.5165 33.8 26.2404 33.8 25.8998C33.8 25.5593 34.091 25.2831 34.45 25.2831C34.809 25.2831 35.1 25.5593 35.1 25.8998C35.1 26.2404 34.809 26.5165 34.45 26.5165Z"/>
<path d="M24.0501 28.3662C22.9732 28.3662 22.1001 29.1946 22.1001 30.2162C22.1001 31.2379 22.9732 32.0662 24.0501 32.0662C25.127 32.0662 26.0001 31.2379 26.0001 30.2162C26.0001 29.1946 25.127 28.3662 24.0501 28.3662ZM24.0501 30.8329C23.6911 30.8329 23.4001 30.5568 23.4001 30.2162C23.4001 29.8757 23.6911 29.5995 24.0501 29.5995C24.4091 29.5995 24.7001 29.8757 24.7001 30.2162C24.7001 30.5568 24.4091 30.8329 24.0501 30.8329Z"/>
<path d="M29.25 28.3662C28.1732 28.3662 27.3 29.1946 27.3 30.2162C27.3 31.2379 28.1732 32.0662 29.25 32.0662C30.3269 32.0662 31.2001 31.2379 31.2001 30.2162C31.2001 29.1946 30.3269 28.3662 29.25 28.3662ZM29.25 30.8329C28.8911 30.8329 28.6 30.5568 28.6 30.2162C28.6 29.8757 28.8911 29.5995 29.25 29.5995C29.609 29.5995 29.9 29.8757 29.9 30.2162C29.9 30.5568 29.609 30.8329 29.25 30.8329Z"/>
<path d="M34.45 28.3662C33.3731 28.3662 32.5 29.1946 32.5 30.2162C32.5 31.2379 33.3731 32.0662 34.45 32.0662C35.5269 32.0662 36.4 31.2379 36.4 30.2162C36.4 29.1946 35.5269 28.3662 34.45 28.3662ZM34.45 30.8329C34.091 30.8329 33.8 30.5568 33.8 30.2162C33.8 29.8757 34.091 29.5995 34.45 29.5995C34.809 29.5995 35.1 29.8757 35.1 30.2162C35.1 30.5568 34.809 30.8329 34.45 30.8329Z"/>
<path d="M5.85006 20.1871V21.5833C5.85006 21.7468 5.91862 21.9037 6.04049 22.0193L7.34049 23.2526L8.25963 22.3806L7.15006 21.328V20.7848C8.9474 21.2981 10.8923 20.7095 12.0441 19.3036C13.1962 17.8978 13.3178 15.9643 12.3501 14.4386L13.2692 13.5666H14.3001V12.3333H13.0001C12.8277 12.3333 12.6624 12.3983 12.5405 12.514L11.5245 13.4772C10.2763 12.3836 8.4891 12.0418 6.89171 12.5914C5.29433 13.1409 4.15365 14.4898 3.93434 16.0884C3.71503 17.687 4.45421 19.2681 5.85006 20.1871ZM10.8596 15.8526L11.3874 15.3519C11.8749 16.3188 11.788 17.4578 11.1586 18.3476L9.10006 16.3946V13.6284C9.65897 13.7404 10.1763 13.9909 10.5997 14.3546L9.94049 14.98L10.8596 15.8526ZM7.80006 13.6284V16.65C7.80006 16.8135 7.86862 16.9703 7.99049 17.086L10.2395 19.2196C9.32318 19.7998 8.15744 19.895 7.15006 19.4719V17.8833H5.85006V18.481C5.43017 17.9535 5.20228 17.3109 5.20006 16.65C5.20197 15.1854 6.28773 13.9234 7.80006 13.6284Z"/>
<path d="M3.8999 4.93359H7.7999V6.16693H3.8999V4.93359Z"/>
<path d="M9.1001 4.93359H10.4001V6.16693H9.1001V4.93359Z"/>
<path d="M3.8999 7.40039H12.9999V8.63372H3.8999V7.40039Z"/>
<path d="M15.6001 11.0996H18.2001V12.3329H15.6001V11.0996Z"/>
<path d="M15.6001 13.5664H18.2001V14.7997H15.6001V13.5664Z"/>
<path d="M9.1001 22.2002H10.4001V23.4335H9.1001V22.2002Z"/>
<path d="M9.1001 24.667H14.3001V25.9003H9.1001V24.667Z"/>
<path d="M11.7 22.2002H14.3V23.4335H11.7V22.2002Z"/>
<path d="M3.8999 28.3662H16.8999V29.5995H3.8999V28.3662Z"/>
<path d="M3.8999 30.833H16.8999V32.0663H3.8999V30.833Z"/>
</symbol><symbol id="founder" viewBox="0 0 39 37">
<path d="M21.6688 4.16504H19.4785C19.0894 4.16504 18.7729 4.4653 18.7729 4.83444V7.32796C18.7729 7.69702 19.0894 7.99729 19.4785 7.99729H21.6688C22.0578 7.99729 22.3743 7.69702 22.3743 7.32789V4.83444C22.3743 4.46538 22.0579 4.16504 21.6688 4.16504ZM21.26 6.94011H19.8872V5.22221H21.26V6.94011Z"/>
<path d="M26.0235 4.16504H23.8332C23.4442 4.16504 23.1277 4.4653 23.1277 4.83444V7.32796C23.1277 7.69702 23.4441 7.99729 23.8332 7.99729H26.0235C26.4125 7.99729 26.729 7.69702 26.729 7.32789V4.83444C26.729 4.46538 26.4125 4.16504 26.0235 4.16504ZM25.6146 6.94011H24.2419V5.22221H25.6146V6.94011Z"/>
<path d="M30.3785 4.16504H28.1882C27.7992 4.16504 27.4827 4.4653 27.4827 4.83444V7.32796C27.4827 7.69702 27.7992 7.99729 28.1882 7.99729H30.3785C30.7675 7.99729 31.0841 7.69702 31.0841 7.32789V4.83444C31.0841 4.46538 30.7676 4.16504 30.3785 4.16504ZM29.9698 6.94011H28.597V5.22221H29.9698V6.94011Z"/>
<path d="M21.6688 10.3574H19.4785C19.0894 10.3574 18.7729 10.6577 18.7729 11.0268V13.5203C18.7729 13.8895 19.0894 14.1897 19.4785 14.1897H21.6688C22.0578 14.1897 22.3743 13.8895 22.3743 13.5203V11.0268C22.3743 10.6578 22.0579 10.3574 21.6688 10.3574ZM21.26 13.1326H19.8872V11.4147H21.26V13.1326Z"/>
<path d="M26.0235 10.3574H23.8332C23.4442 10.3574 23.1277 10.6577 23.1277 11.0268V13.5203C23.1277 13.8895 23.4441 14.1897 23.8332 14.1897H26.0235C26.4125 14.1897 26.729 13.8895 26.729 13.5203V11.0268C26.729 10.6578 26.4125 10.3574 26.0235 10.3574ZM25.6146 13.1326H24.2419V11.4147H25.6146V13.1326Z"/>
<path d="M30.3785 10.3574H28.1882C27.7992 10.3574 27.4827 10.6577 27.4827 11.0268V13.5203C27.4827 13.8895 27.7992 14.1897 28.1882 14.1897H30.3785C30.7675 14.1897 31.0841 13.8895 31.0841 13.5203V11.0268C31.0841 10.6578 30.7676 10.3574 30.3785 10.3574ZM29.9698 13.1326H28.597V11.4147H29.9698V13.1326Z"/>
<path d="M21.6688 16.5488H19.4785C19.0894 16.5488 18.7729 16.8491 18.7729 17.2182V19.7117C18.7729 20.0808 19.0894 20.3811 19.4785 20.3811H21.6688C22.0578 20.3811 22.3743 20.0809 22.3743 19.7117V17.2182C22.3743 16.8492 22.0579 16.5488 21.6688 16.5488ZM21.26 19.324H19.8872V17.6061H21.26V19.324Z"/>
<path d="M26.0235 16.5488H23.8332C23.4442 16.5488 23.1277 16.8491 23.1277 17.2182V19.7117C23.1277 20.0808 23.4441 20.3811 23.8332 20.3811H26.0235C26.4125 20.3811 26.729 20.0809 26.729 19.7117V17.2182C26.729 16.8492 26.4125 16.5488 26.0235 16.5488ZM25.6146 19.324H24.2419V17.6061H25.6146V19.324Z"/>
<path d="M30.3785 16.5488H28.1882C27.7992 16.5488 27.4827 16.8491 27.4827 17.2182V19.7117C27.4827 20.0808 27.7992 20.3811 28.1882 20.3811H30.3785C30.7675 20.3811 31.0841 20.0809 31.0841 19.7117V17.2182C31.0841 16.8492 30.7676 16.5488 30.3785 16.5488ZM29.9698 19.324H28.597V17.6061H29.9698V19.324Z"/>
<path d="M30.3785 22.7412H28.1882C27.7992 22.7412 27.4827 23.0415 27.4827 23.4105V25.9041C27.4827 26.2731 27.7992 26.5735 28.1882 26.5735H30.3785C30.7675 26.5735 31.0841 26.2732 31.0841 25.9041V23.4105C31.0841 23.0415 30.7676 22.7412 30.3785 22.7412ZM29.9698 25.5162H28.597V23.7984H29.9698V25.5162Z"/>
<path d="M37.6723 25.097C36.9584 24.1015 35.5205 23.8379 34.4678 24.509L32.936 25.4817V2.74342H33.047C33.4504 2.74342 33.7786 2.4321 33.7786 2.04938V0.694039C33.7786 0.31132 33.4504 0 33.047 0H29.4892C29.1814 0 28.932 0.23667 28.932 0.528551C28.932 0.820432 29.1815 1.0571 29.4892 1.0571H32.6642V1.68617H17.0208V1.0571H26.0003C26.308 1.0571 26.5574 0.820432 26.5574 0.528551C26.5574 0.23667 26.3079 0 26.0002 0H16.6381C16.2347 0 15.9065 0.31132 15.9065 0.694039V2.04938C15.9065 2.4321 16.2347 2.74342 16.6381 2.74342H16.921V9.53285H15.7769V8.22816C15.7769 7.7739 15.3874 7.40434 14.9087 7.40434H10.7018C10.223 7.40434 9.83348 7.7739 9.83348 8.22816V9.53277H9.03291C8.53536 9.53277 8.13058 9.91679 8.13058 10.3888V22.511C7.89475 22.4968 7.65824 22.4891 7.42119 22.4891H6.54308V22.2144C6.54308 21.1889 5.66368 20.3546 4.58264 20.3546H2.88866C1.8077 20.3546 0.928223 21.1889 0.928223 22.2144V29.7625C0.928223 30.0545 1.17769 30.2911 1.48534 30.2911C1.793 30.2911 2.04246 30.0544 2.04246 29.7625V22.2144C2.04246 21.7718 2.42203 21.4117 2.88858 21.4117H4.58257C5.04912 21.4117 5.42869 21.7718 5.42869 22.2144V34.1076C5.42869 34.5502 5.04912 34.9103 4.58257 34.9103H2.88866C2.42211 34.9103 2.04254 34.5502 2.04254 34.1076V33.0706C2.04254 32.7786 1.79308 32.542 1.48542 32.542C1.17776 32.542 0.928299 32.7787 0.928299 33.0706V34.1076C0.928299 35.1332 1.8077 35.9675 2.88873 35.9675H4.58272C5.66368 35.9675 6.54316 35.1331 6.54316 34.1076V34.0775L14.2581 36.8492C14.2732 36.8546 14.2885 36.8594 14.304 36.8636C14.643 36.9544 14.9818 37 15.3175 37C15.5001 37 15.6816 36.9865 15.8619 36.9595C15.862 36.9595 15.8624 36.9595 15.8629 36.9594L27.2507 35.4021C27.2535 35.4017 27.2563 35.4013 27.2591 35.4008C28.2326 35.2533 29.1508 34.863 29.9147 34.272C29.9217 34.2666 29.9285 34.2611 29.9352 34.2554L37.2955 27.975C38.1629 27.2441 38.3249 26.007 37.6723 25.097ZM18.0353 2.74342H31.8217V26.1892L27.186 29.1325L25.6318 29.0498L25.5922 28.6723C25.5632 28.395 25.4977 28.1282 25.4002 27.8765C25.3677 27.7926 25.3316 27.7104 25.2923 27.63C25.2331 27.5094 25.1663 27.3929 25.0925 27.281C24.918 27.0167 24.704 26.7786 24.4579 26.5737H26.0237C26.4127 26.5737 26.7292 26.2734 26.7292 25.9043V23.4107C26.7292 23.0417 26.4127 22.7414 26.0237 22.7414H23.8334C23.4444 22.7414 23.1279 23.0417 23.1279 23.4107V25.8924C22.9871 25.8556 22.8426 25.8267 22.6948 25.8068C22.6901 25.8062 22.6853 25.8056 22.6805 25.8051L22.3743 25.7717V23.4107C22.3743 23.0416 22.0578 22.7413 21.6687 22.7413H19.4784C19.0893 22.7413 18.7729 23.0415 18.7729 23.4107V25.3783L18.0353 25.2978V2.74342ZM24.2421 25.5165V23.7987H25.6148V25.5165H24.2421ZM21.2599 23.7986V25.5165H20.0368L19.8871 25.5002V23.7986H21.2599ZM10.9478 8.46151H14.6626V9.53277H10.9478V8.46151ZM9.24474 10.5899H16.921V12.243H10.6287C10.2685 12.243 9.97546 12.521 9.97546 12.8627V14.4587C9.97546 14.8004 10.2685 15.0784 10.6287 15.0784H16.921V16.5655H10.6287C10.2685 16.5655 9.97546 16.8435 9.97546 17.1853V18.7812C9.97546 19.1229 10.2685 19.4009 10.6287 19.4009H16.921V20.888H10.6287C10.2685 20.888 9.97546 21.166 9.97546 21.5078V22.7697C9.88086 22.7489 9.78587 22.7293 9.6905 22.7107C9.64556 22.7019 9.60062 22.6935 9.55553 22.6852C9.50281 22.6755 9.44987 22.6664 9.39694 22.6574C9.3462 22.6488 9.29563 22.6395 9.24474 22.6316V10.5899ZM16.921 13.3001V14.0213H11.0898V13.3001H16.921ZM16.921 17.6226V18.3438H11.0898V17.6226H16.921ZM11.0898 22.6663V21.9452H16.921V22.6663H11.0898ZM16.921 23.7235V25.1761L16.7493 25.1573C16.3894 25.1088 16.0347 25.0418 15.6856 24.9579C15.0088 24.7952 14.3536 24.5671 13.7256 24.2742C13.6421 24.2353 13.5593 24.195 13.4768 24.1537C13.3421 24.0864 13.2087 24.0165 13.0766 23.9433C12.9795 23.8893 12.8813 23.8374 12.7829 23.7864C12.7615 23.7753 12.7402 23.7644 12.7188 23.7536C12.6992 23.7436 12.6797 23.7333 12.6601 23.7235H16.921ZM36.553 27.1867L29.2003 33.4604C28.5915 33.9287 27.8613 34.2383 27.0873 34.3562L15.6995 35.9136C15.697 35.9139 15.6866 35.9154 15.6842 35.9158C15.3434 35.9669 14.9886 35.9454 14.629 35.8521L6.54308 32.9471V23.5464H7.42111C7.82513 23.5464 8.22755 23.5707 8.62661 23.6164C8.70766 23.6257 8.7884 23.6358 8.86899 23.6469C8.88072 23.6485 8.89237 23.6502 8.90403 23.6519C9.10763 23.6805 9.30941 23.7153 9.50952 23.7552C9.57175 23.7677 9.63406 23.7802 9.69606 23.7938C9.72707 23.8006 9.75791 23.8078 9.78884 23.8148C9.86966 23.8333 9.95032 23.8525 10.0307 23.8729C10.0452 23.8766 10.0597 23.8802 10.0742 23.8839C10.7037 24.0467 11.3165 24.2675 11.9034 24.5436C11.9209 24.5519 11.9383 24.5603 11.9558 24.5686C12.0304 24.6043 12.1045 24.641 12.1783 24.6783C12.2007 24.6898 12.2233 24.701 12.2457 24.7125C12.3344 24.7584 12.4227 24.8052 12.5101 24.8537C12.5114 24.8545 12.5127 24.8551 12.514 24.8558C12.7508 24.9872 12.9915 25.11 13.2359 25.224C14.295 25.7178 15.4233 26.0471 16.6002 26.2051C16.605 26.2058 16.6097 26.2063 16.6145 26.2068L17.4144 26.2942L18.0658 26.3654L19.5682 26.5295L19.941 26.5703C19.941 26.5703 19.9411 26.5703 19.9412 26.5703L22.5452 26.8547C23.583 26.9969 24.3795 27.7865 24.4833 28.777L24.5027 28.9612L14.0594 27.9956C13.7522 27.9672 13.4807 28.1798 13.4508 28.4704C13.421 28.761 13.645 29.0195 13.9513 29.0478L25.0223 30.0715C25.0455 30.0757 25.0691 30.0789 25.0933 30.0801L27.3097 30.1981C27.3201 30.1987 27.3305 30.1989 27.3409 30.1989C27.3519 30.1989 27.3628 30.1973 27.3738 30.1966C27.3864 30.1959 27.399 30.1955 27.4115 30.194C27.4275 30.192 27.4432 30.1887 27.459 30.1854C27.4713 30.1829 27.4837 30.1809 27.4958 30.1775C27.5125 30.1729 27.5287 30.1667 27.545 30.1606C27.5552 30.1567 27.5658 30.1537 27.5757 30.1493C27.6016 30.1379 27.6268 30.1247 27.6508 30.1095L32.6887 26.9109L32.6888 26.9108L35.0885 25.3871C35.6349 25.0388 36.3807 25.1755 36.751 25.6918C37.0895 26.1637 37.0055 26.8054 36.553 27.1867Z"/>
</symbol><symbol id="users" viewBox="0 0 45 45">
<path d="M38.9579 16.1393L38.0082 15.8203C37.8685 15.7733 37.7463 15.6957 37.6447 15.5893C37.484 15.421 37.3954 15.1992 37.3954 14.9651V14.001L37.6666 13.8359V13.8356C38.2657 13.4706 38.6375 12.8077 38.6375 12.1059V10.4219C38.6375 10.4198 38.6375 10.4174 38.6375 10.4154V8.94493C38.6375 7.71343 37.6368 6.71162 36.4066 6.71162H34.461C33.7057 6.71162 33.0373 7.08961 32.6335 7.6664V6.37688C32.6335 5.08255 31.5816 4.02958 30.2886 4.02958H28.2022C27.3429 4.02958 26.5903 4.49478 26.1821 5.18692V4.2627C26.1821 4.26029 26.1821 4.25823 26.1821 4.25583V2.51896C26.1821 1.12988 25.0533 0 23.6659 0H21.3674C19.98 0 18.8512 1.12988 18.8512 2.51896V4.01653V4.01825V5.21336C18.4464 4.5068 17.6859 4.02958 16.8159 4.02958H14.7292C13.4363 4.02958 12.3843 5.08255 12.3843 6.37688V7.6815C11.982 7.09511 11.3077 6.7099 10.5448 6.7099H8.59921C7.36908 6.7099 6.36829 7.71172 6.36829 8.94321V10.209V10.2108V12.1042C6.36829 12.8059 6.74046 13.4689 7.33921 13.8338L7.61112 13.9997V14.963C7.61112 15.2137 7.50641 15.4547 7.32204 15.6256C7.229 15.7129 7.12017 15.7777 6.99898 15.8183L6.04797 16.1375C4.58611 16.6309 3.60352 17.9997 3.60352 19.544V20.0435C3.60352 20.4078 3.89877 20.7027 4.2627 20.7027C4.62696 20.7027 4.92188 20.4078 4.92188 20.0435V19.544C4.92188 18.5659 5.54363 17.699 6.46854 17.3872L7.41886 17.0679C7.58881 17.011 7.74811 16.9344 7.89677 16.84C8.40385 16.9876 8.9257 17.0635 9.45477 17.0635C9.46335 17.0635 9.47227 17.0631 9.48086 17.0631C9.44 17.2873 9.41906 17.5156 9.41906 17.7467V25.9686C9.41906 26.1591 9.43794 26.348 9.47262 26.5337H7.16137V20.3587C7.16137 19.9944 6.86611 19.6995 6.50219 19.6995C6.13792 19.6995 5.84301 19.9944 5.84301 20.3587V28.6455C5.30022 28.3949 4.92188 27.8466 4.92188 27.2104V23.2203C4.92188 22.856 4.62696 22.5611 4.2627 22.5611C3.89843 22.5611 3.60352 22.856 3.60352 23.2203V27.2104C3.60352 28.5823 4.56139 29.7338 5.84301 30.0332V42.3956C5.84301 42.6002 5.93639 42.7832 6.08299 42.9044C5.92987 43.2 5.84301 43.535 5.84301 43.8904V44.2049C5.84301 44.6426 6.19869 44.9983 6.63643 44.9983H9.35692C9.40258 44.9983 9.44721 44.9935 9.49116 44.9863C9.53476 44.9935 9.57939 44.9983 9.6254 44.9983H12.3459C12.3933 44.9983 12.4393 44.9935 12.4846 44.9856C12.5299 44.9935 12.5763 44.9983 12.624 44.9983H15.5415C15.591 44.9983 15.6387 44.9931 15.6857 44.9846C15.7324 44.9931 15.7805 44.9983 15.8296 44.9983H18.7475C18.7986 44.9983 18.8484 44.9931 18.8972 44.9839C18.9463 44.9931 18.9964 44.9983 19.0479 44.9983H22.2624C22.3167 44.9983 22.3695 44.9928 22.421 44.9825C22.4722 44.9928 22.5251 44.9983 22.5793 44.9983H25.7938C25.8457 44.9983 25.8965 44.9928 25.9456 44.9835C25.9947 44.9931 26.0452 44.9983 26.0966 44.9983H29.0145C29.0636 44.9983 29.1117 44.9931 29.1584 44.9846C29.2051 44.9931 29.2532 44.9983 29.3026 44.9983H32.2205C32.2658 44.9983 32.3104 44.9935 32.354 44.9863C32.4007 44.9949 32.4488 45 32.4982 45H35.2187C35.2644 45 35.309 44.9952 35.353 44.9876C35.3966 44.9952 35.4412 45 35.4872 45H38.2077C38.6451 45 39.0011 44.644 39.0011 44.2066V43.8921C39.0011 43.5368 38.9139 43.2013 38.7611 42.9057C38.9074 42.7849 39.0008 42.6019 39.0008 42.3973V30.039C40.3727 29.7366 41.4027 28.5119 41.4027 27.0501V19.5457C41.403 18.0018 40.4208 16.633 38.9579 16.1393ZM34.8593 27.8534H37.6828V41.7381H36.0122V30.0215C36.0122 29.6572 35.7172 29.3623 35.353 29.3623C34.9891 29.3623 34.6938 29.6572 34.6938 30.0215V41.7381H33.0239V28.962C33.7424 28.8137 34.3893 28.4254 34.8593 27.8534ZM23.0802 41.3838V27.4208C23.0802 27.0566 22.7853 26.7617 22.421 26.7617C22.0571 26.7617 21.7619 27.0566 21.7619 27.4208V41.3838H19.5488V31.3059C19.5488 30.9416 19.2535 30.6467 18.8896 30.6467C18.5254 30.6467 18.2304 30.9416 18.2304 31.3059V41.5956H16.3449V28.9812C16.3449 28.6173 16.05 28.3221 15.6857 28.3221C15.3215 28.3221 15.0266 28.6173 15.0266 28.9812V41.5956H13.1393V26.6092H16.7373C17.1682 26.9807 17.6791 27.231 18.2304 27.3419V28.3705C18.2304 28.7347 18.5254 29.0297 18.8896 29.0297C19.2539 29.0297 19.5488 28.7347 19.5488 28.3705V26.7514C19.5488 26.7503 19.5491 26.7493 19.5491 26.7479C19.5491 26.7466 19.5488 26.7455 19.5488 26.7445V25.9875C19.5495 25.9748 19.5505 25.9624 19.5505 25.9501V24.7402H25.2933V41.3838H23.0802ZM8.02551 12.7081C7.81643 12.5807 7.68665 12.3493 7.68665 12.1042V10.6193L8.80211 10.037L11.4574 10.8916V12.1038C11.4574 12.3493 11.3276 12.5807 11.1185 12.7081L9.93816 13.4277C9.71226 13.5654 9.43142 13.565 9.20586 13.4277L8.02551 12.7081ZM37.3192 12.1059C37.3192 12.351 37.1894 12.5824 36.9807 12.7098L35.8 13.4294C35.5744 13.5671 35.2939 13.5671 35.0677 13.4294L33.8873 12.7098C33.6786 12.5824 33.5488 12.351 33.5488 12.1059V10.621L34.6639 10.0388L37.3192 10.8933V12.1059ZM30.9293 10.4556L29.6631 11.2273C29.4056 11.3842 29.0856 11.3842 28.8278 11.2273L27.562 10.4559C27.3237 10.3103 27.1757 10.0467 27.1757 9.76685V8.14568L28.4155 7.49851L31.3152 8.43166V9.76685C31.3155 10.0467 31.1672 10.3103 30.9293 10.4556ZM26.6123 25.9864V18.6194C26.6123 18.6153 26.612 18.6115 26.6116 18.6074V16.0061C26.6116 15.6418 26.3167 15.3469 25.9525 15.3469C25.5885 15.3469 25.2933 15.6418 25.2933 16.0061V23.4218H19.5505V18.6194C19.5505 18.6067 19.5495 18.5944 19.5488 18.582V16.0061C19.5488 15.6418 19.2539 15.3469 18.8896 15.3469C18.5254 15.3469 18.2304 15.6418 18.2304 16.0061V25.9748C17.9462 25.8752 17.6856 25.7121 17.4679 25.4893C17.1037 25.1165 16.9028 24.6235 16.9028 24.1016V15.0441C16.9028 14.8497 16.9224 14.6575 16.9619 14.4704C17.0655 13.9698 17.3042 13.5073 17.6526 13.1321C17.9685 12.7908 18.3695 12.5316 18.8117 12.3826L19.9354 12.0046C20.1438 11.9342 20.3388 11.8388 20.5183 11.7193C20.8912 11.8312 21.2712 11.9085 21.6561 11.9518L20.4219 18.3863C20.3831 18.5885 20.4411 18.7973 20.5784 18.9507L21.9534 20.4837C22.0746 20.6189 22.2459 20.6979 22.4276 20.7027H22.444C22.6195 20.7027 22.788 20.6327 22.912 20.5077L24.4326 18.9748C24.5891 18.8168 24.6554 18.5909 24.6094 18.3736L23.2433 11.9339C23.6453 11.8797 24.0412 11.788 24.4288 11.6592C24.6334 11.8076 24.86 11.925 25.099 12.005L26.222 12.383C26.6583 12.5296 27.0549 12.7843 27.3697 13.1208C27.7295 13.5039 27.9743 13.9784 28.0769 14.4927C28.113 14.6726 28.1312 14.8583 28.1312 15.0441V23.91C28.1312 24.506 27.8953 25.0619 27.4665 25.4763C27.221 25.7135 26.9292 25.8858 26.6123 25.9864ZM11.8048 13.8338C12.4036 13.4689 12.7757 12.8059 12.7757 12.1038V10.9915C12.9409 11.226 13.1524 11.4289 13.4026 11.5813L13.7175 11.7732V12.8337C13.7175 13.1146 13.5994 13.3862 13.3941 13.5774C13.2876 13.6759 13.1647 13.749 13.027 13.7954L12.0081 14.1387C11.8453 14.1933 11.687 14.2596 11.5336 14.3358V13.999L11.8048 13.8338ZM15.0358 12.8337V12.5306C15.2737 12.6192 15.523 12.6645 15.7726 12.6645C15.9896 12.6645 16.2059 12.6298 16.4153 12.5629C16.1516 12.9131 15.9453 13.302 15.8049 13.7161C15.7853 13.7168 15.7661 13.7185 15.7465 13.7188C15.4574 13.7243 15.1697 13.7034 14.8854 13.656C14.984 13.3951 15.0358 13.1166 15.0358 12.8337ZM23.3957 9.19968V9.63192C23.3957 9.94537 23.4538 10.2509 23.564 10.5359C23.2117 10.619 22.8529 10.666 22.4904 10.6739C22.1381 10.6808 21.7897 10.6512 21.4463 10.5884C21.571 10.2877 21.6379 9.96254 21.6379 9.63192V9.19968C21.9194 9.31812 22.2178 9.3782 22.5168 9.3782C22.8155 9.37855 23.1142 9.31847 23.3957 9.19968ZM22.4767 14.6726L23.2457 18.2991L22.4681 19.0833L21.778 18.3135L22.4767 14.6726ZM25.8574 7.7354V7.73746V9.76719C25.8574 10.2149 26.0026 10.6471 26.257 11.0035L25.5182 10.7549C25.3386 10.6948 25.1745 10.5905 25.043 10.4528C24.8308 10.231 24.7141 9.93954 24.7141 9.63226V8.42583L25.0924 8.19511C25.4103 8.00148 25.6706 7.73197 25.8574 7.4192V7.7354ZM24.8638 6.25362C24.8638 6.58493 24.6883 6.89735 24.4061 7.06936L23.0116 7.91977C22.7063 8.10585 22.327 8.10585 22.0218 7.91977L20.6272 7.06936C20.345 6.89735 20.1695 6.58493 20.1695 6.25362V4.4268L21.596 3.68214L24.8638 4.73408V6.25362ZM19.9409 8.19511L20.3196 8.42617V9.63192C20.3196 9.96014 20.1815 10.277 19.9402 10.5019C19.818 10.6159 19.6748 10.7014 19.5145 10.7553L18.7564 11.0104C19.0139 10.6523 19.1608 10.2176 19.1608 9.76685V7.96028C19.1608 7.95822 19.1608 7.95582 19.1608 7.95376V7.39414C19.3483 7.71755 19.6144 7.99633 19.9409 8.19511ZM17.8425 9.76685C17.8425 10.0467 17.6942 10.3103 17.4559 10.4556L16.1901 11.2273C15.9326 11.3842 15.6126 11.3842 15.3551 11.2273L14.0893 10.4556C13.851 10.3103 13.7027 10.0467 13.7027 9.76685V8.14568L14.9424 7.49851L17.8425 8.43166V9.76685ZM10.9801 26.8554C10.8212 26.5886 10.7374 26.282 10.7374 25.9686V17.7464C10.7374 17.1356 10.9609 16.5475 11.3674 16.0905C11.6537 15.7685 12.0204 15.5254 12.4286 15.3884L13.4476 15.0447C13.6327 14.9829 13.806 14.8985 13.9681 14.7941C14.4944 14.9496 15.0358 15.0314 15.5844 15.0368V15.0441V24.1016C15.5844 24.5146 15.6607 24.916 15.8052 25.2909H13.1393V18.6194C13.1393 18.2552 12.8444 17.9602 12.4801 17.9602C12.1162 17.9602 11.8209 18.2552 11.8209 18.6194V27.5812C11.4749 27.439 11.1762 27.1867 10.9801 26.8554ZM31.7045 27.1943V41.5956H29.8179V28.9816C29.8179 28.6173 29.5227 28.3224 29.1587 28.3224C28.7945 28.3224 28.4996 28.6173 28.4996 28.9816V41.5956H26.6123V27.3446C27.185 27.2358 27.7199 26.9841 28.1741 26.6092H31.7045V27.1943ZM29.2302 13.7185C29.0901 13.3051 28.8844 12.9179 28.6221 12.5687C28.8257 12.6319 29.0355 12.6645 29.2456 12.6645C29.4952 12.6645 29.7448 12.6188 29.9831 12.5303V12.8337C29.9831 13.1019 30.0284 13.3638 30.1149 13.6103C29.8244 13.6745 29.5288 13.7113 29.2302 13.7185ZM31.5826 13.5365C31.401 13.347 31.3014 13.0974 31.3014 12.8337V11.7729L31.6152 11.5813H31.6156C31.8593 11.4326 32.067 11.2363 32.2305 11.009V12.1059C32.2305 12.8077 32.6023 13.4706 33.2014 13.8359L33.4729 14.0014V14.3303C33.3239 14.2575 33.1701 14.193 33.0105 14.1391L31.9901 13.7947C31.8332 13.7422 31.6962 13.6557 31.5826 13.5365ZM35.0254 15.7362C34.943 15.6037 34.8531 15.477 34.7559 15.3565C34.7789 15.2281 34.7913 15.0973 34.7913 14.9651V14.7457C35 14.8161 35.2167 14.8521 35.434 14.8521C35.651 14.8521 35.868 14.8161 36.0767 14.7454V14.9651C36.0767 15.2034 36.1148 15.4361 36.1869 15.6569C35.9315 15.7101 35.6716 15.74 35.4096 15.7455C35.2805 15.7482 35.1521 15.7448 35.0254 15.7362ZM34.4614 8.02998H36.407C36.9099 8.02998 37.3195 8.44025 37.3195 8.94459V9.50832L34.8054 8.69911C34.6378 8.64521 34.4548 8.66066 34.2983 8.74237L33.5488 9.13376V8.94459C33.5488 8.44025 33.9581 8.02998 34.4614 8.02998ZM28.2022 5.34794H30.289C30.8548 5.34794 31.3155 5.80936 31.3155 6.37688V7.0467L28.5569 6.15887C28.389 6.10497 28.2064 6.12041 28.0498 6.20213L27.1757 6.6584V6.37688C27.1757 5.80936 27.6361 5.34794 28.2022 5.34794ZM21.3674 1.31836H23.6659C24.3265 1.31836 24.8638 1.85703 24.8638 2.51896V3.34911L21.7375 2.34283C21.5696 2.28859 21.3869 2.30438 21.2304 2.38575L20.1695 2.93987V2.51896C20.1695 1.85703 20.7068 1.31836 21.3674 1.31836ZM14.7292 5.34794H16.8159C17.3817 5.34794 17.8425 5.80936 17.8425 6.37688V7.0467L15.0839 6.15887C14.916 6.10497 14.7334 6.12041 14.5768 6.20213L13.7027 6.6584V6.37688C13.7027 5.80936 14.1631 5.34794 14.7292 5.34794ZM8.59921 8.02826H10.5448C11.0481 8.02826 11.4574 8.43853 11.4574 8.94321V9.50661L8.94356 8.6974C8.77567 8.64349 8.59303 8.65894 8.43647 8.74065L7.68665 9.13204V8.94321C7.68665 8.43853 8.09624 8.02826 8.59921 8.02826ZM9.54746 15.7441C9.29752 15.7496 9.04964 15.7328 8.80451 15.6947C8.88588 15.4612 8.92948 15.2143 8.92948 14.963V14.744C9.13822 14.8144 9.3552 14.8501 9.57218 14.8501C9.78951 14.8501 10.0065 14.814 10.2152 14.7437V15.4173C10.1428 15.5113 10.0748 15.6081 10.0116 15.7077C9.85783 15.728 9.70264 15.7407 9.54746 15.7441ZM10.0679 27.8517C10.5064 28.4127 11.1305 28.8024 11.8209 28.9565V41.736H10.1503V30.0198C10.1503 29.6555 9.85542 29.3606 9.49116 29.3606C9.12689 29.3606 8.83198 29.6555 8.83198 30.0198V41.7364H7.16137V27.8517H10.0679ZM7.18815 43.6799C7.28153 43.3208 7.60872 43.0547 7.99667 43.0547C8.38463 43.0547 8.71181 43.3208 8.8052 43.6799H7.18815ZM10.1771 43.6799C10.2705 43.3208 10.5977 43.0547 10.9856 43.0547C11.3736 43.0547 11.7008 43.3208 11.7942 43.6799H10.1771ZM13.1561 43.6799C13.2392 43.2442 13.6234 42.914 14.0828 42.914C14.5425 42.914 14.9263 43.2442 15.0097 43.6799H13.1561ZM16.3617 43.6799C16.4452 43.2442 16.829 42.914 17.2887 42.914C17.7484 42.914 18.1322 43.2442 18.2157 43.6799H16.3617ZM19.5564 43.6799C19.6202 43.1303 20.0888 42.7021 20.6553 42.7021C21.2222 42.7021 21.6904 43.1303 21.7546 43.6799H19.5564ZM23.0878 43.6799C23.1516 43.1303 23.6203 42.7021 24.1867 42.7021C24.7536 42.7021 25.2219 43.1303 25.2861 43.6799H23.0878ZM26.6291 43.6799C26.7122 43.2442 27.0964 42.914 27.5558 42.914C28.0155 42.914 28.3993 43.2442 28.4827 43.6799H26.6291ZM29.8347 43.6799C29.9182 43.2442 30.302 42.914 30.7617 42.914C31.2214 42.914 31.6053 43.2442 31.6887 43.6799H29.8347ZM33.05 43.6816C33.1433 43.3225 33.4705 43.0568 33.8585 43.0568C34.2464 43.0568 34.5736 43.3225 34.667 43.6816H33.05ZM36.0389 43.6816C36.1323 43.3225 36.4595 43.0568 36.8475 43.0568C37.2354 43.0568 37.5626 43.3225 37.656 43.6816H36.0389ZM40.0846 27.0501C40.0846 27.7779 39.6359 28.4021 39.0011 28.6626V20.3604C39.0011 19.9961 38.7059 19.7012 38.3419 19.7012C37.9777 19.7012 37.6828 19.9961 37.6828 20.3604V26.5351H35.5126C35.5693 26.2937 35.5998 26.0458 35.5998 25.7942V24.597C35.5998 24.2327 35.3046 23.9378 34.9406 23.9378C34.5764 23.9378 34.2815 24.2327 34.2815 24.597V25.7942C34.2815 26.1653 34.175 26.5255 33.9732 26.8365C33.7431 27.1925 33.4084 27.4545 33.0239 27.5949V18.6191C33.0239 18.2552 32.7286 17.9599 32.3647 17.9599C32.0004 17.9599 31.7055 18.2552 31.7055 18.6191V20.3432C31.7052 20.3491 31.7045 20.3546 31.7045 20.3604V25.2909H29.1677C29.3524 24.861 29.4495 24.3938 29.4495 23.91V15.0441C29.4495 15.0386 29.4492 15.0334 29.4492 15.0279C29.9676 14.9991 30.4774 14.9026 30.9718 14.7409C31.1555 14.87 31.3574 14.9733 31.5702 15.0447L32.5889 15.3884C32.9593 15.513 33.2851 15.7163 33.5605 15.9954C33.7493 16.1842 33.9059 16.4036 34.026 16.6474C34.1929 16.9866 34.2815 17.3666 34.2815 17.7464V21.4731C34.2815 21.8374 34.5764 22.1323 34.9406 22.1323C35.3046 22.1323 35.5998 21.8374 35.5998 21.4731V17.7464C35.5998 17.5163 35.5775 17.286 35.536 17.0594C36.0465 17.0395 36.5491 16.9502 37.0363 16.7926C37.2062 16.9093 37.3916 17.0037 37.588 17.07L38.5369 17.3886C39.4625 17.701 40.0846 18.5679 40.0846 19.5457V27.0501Z"/>
</symbol><symbol id="calendar" viewBox="0 0 86 86">
    <path d="M11.7822 33.0898H21.8709V38.1289H11.7822V33.0898Z"/>
    <path d="M31.1389 33.0898H41.2275V38.1289H31.1389V33.0898Z"/>
    <path d="M50.4956 33.0898H60.5844V38.1289H50.4956V33.0898Z"/>
    <path d="M11.7822 46.5273H21.8709V51.5664H11.7822V46.5273Z"/>
    <path d="M31.1389 46.5273H41.2275V51.5664H31.1389V46.5273Z"/>
    <path d="M11.7822 60.1328H21.8709V65.1719H11.7822V60.1328Z"/>
    <path d="M31.1389 60.1328H41.2275V65.1719H31.1389V60.1328Z"/>
    <path d="M72.3663 49.4016V5.95668H60.5779V0H55.5389V5.95668H45.9944V0H40.9553V5.95668H31.4108V0H26.3718V5.95668H16.8273V0H11.7882V5.95668H0V77.6016H51.7236C55.0679 82.6576 60.8112 86 67.322 86C77.621 86 86 77.6362 86 67.3555C86 58.8188 80.2229 51.604 72.3663 49.4016ZM11.7882 10.9957V17.2615H16.8273V10.9957H26.3718V17.2615H31.4108V10.9957H40.9553V17.2615H45.9944V10.9957H55.5389V17.2615H60.5779V10.9957H67.3272V22.2663H5.03906V10.9957H11.7882ZM5.03906 72.5625V27.3053H67.3272V48.7109C67.3256 48.7109 67.3237 48.7109 67.322 48.7109C57.0229 48.7109 48.6439 57.0748 48.6439 67.3555C48.6439 69.162 48.9026 70.9094 49.385 72.5625H5.03906ZM67.322 80.9609C59.8014 80.9609 53.683 74.8575 53.683 67.3555C53.683 59.8535 59.8014 53.75 67.322 53.75C74.8425 53.75 80.9609 59.8535 80.9609 67.3555C80.9609 74.8575 74.8425 80.9609 67.322 80.9609Z"/>
    <path d="M69.8416 58.9883H64.8025V69.875H75.6892V64.8359H69.8416V58.9883Z"/>
</symbol><symbol id="check" viewBox="0 0 21 16">
    <path d="M1.5 6.5L7 12L17.5 1.5"/>
</symbol><symbol id="chevron-left" viewBox="0 0 15 18">
    <path d="M14 1.5L2 9L14 16.5" stroke-width="2" stroke-linecap="round"/>
</symbol><symbol id="chevron-right" viewBox="0 0 15 17">
    <path d="M1 16L13 8.5L1 1" stroke-width="2" stroke-linecap="round"/>
</symbol><symbol id="cross" viewBox="0 0 17 17">
    <path d="M1 16L16 1M16 16L1 1" stroke-width="2" stroke-linecap="round"/>
</symbol><symbol id="gift" viewBox="0 0 512 512">
		<path d="M499.521,92.982H381.486c12.951-19.021,14.201-44.702,1.13-65.343C365.075-0.063,328.253-8.333,300.552,9.208
			c-7.01,4.44-18.711,14.821-39.292,53.532c-1.84,3.47-3.6,6.87-5.26,10.14c-1.66-3.27-3.42-6.67-5.26-10.14
			c-20.581-38.712-32.281-49.092-39.292-53.532c-27.701-17.541-64.523-9.27-82.064,18.431c-8.5,13.421-11.261,29.351-7.78,44.852
			c1.67,7.45,4.69,14.371,8.87,20.491H12.479v145.216H30.02V512h451.96V238.198h17.541L499.521,92.982L499.521,92.982z
			 M316.593,34.56c4.78-3.03,10.2-4.58,15.721-4.58c2.16,0,4.35,0.24,6.51,0.72c7.68,1.73,14.231,6.34,18.451,12.991
			c8.69,13.731,4.59,31.981-9.14,40.672c-8.26,5.24-38.542,8.16-68.693,8.61C292.742,65.91,308.333,39.79,316.593,34.56z
			 M154.726,43.689c4.22-6.65,10.771-11.26,18.451-12.991c2.16-0.48,4.35-0.72,6.51-0.72c5.52,0,10.94,1.55,15.721,4.58
			c8.26,5.23,23.851,31.351,37.152,58.413c-15.071-0.23-30.181-1.07-42.552-2.51c-12.371-1.44-22.011-3.48-26.141-6.1
			c-6.65-4.21-11.271-10.76-12.991-18.441C149.145,58.24,150.515,50.34,154.726,43.689z M195.297,481.999H60.021V238.198h135.276
			V481.999z M195.297,208.197H42.481v-85.214h152.817V208.197z M286.702,481.999h-61.403V122.983h61.403V481.999z M451.979,481.999
			L451.979,481.999H316.703V238.198h135.276V481.999z M469.52,208.197H316.703v-85.214H469.52V208.197z"/>
</symbol><symbol id="exit" viewBox="0 0 51 51">
<path d="M47.8125 24.7031H47.0156V16.7344H42.4758L44.2505 15.5518C44.9836 15.0617 45.4219 14.2433 45.4219 13.362V12.9915C45.4219 11.5395 44.2417 10.3594 42.7898 10.3594C42.2686 10.3594 41.7634 10.5124 41.3299 10.8016L34.2377 15.5303C33.2775 16.1702 32.1866 16.5511 31.051 16.677C32.0519 15.6674 32.6719 14.28 32.6719 12.75C32.6719 9.67406 30.1689 7.17188 27.0938 7.17188C24.2895 7.17188 21.9683 9.25411 21.5794 11.9531H18.2476C17.8771 10.137 16.2682 8.76562 14.3438 8.76562H13.5469V7.50178L15.0442 6.00445C15.6203 5.42831 15.9375 4.66252 15.9375 3.84811C15.9375 2.16511 14.5685 0.796875 12.8871 0.796875H12.6129C10.9315 0.796875 9.5625 2.16511 9.5625 3.84811V4.78125H11.1562V3.84811C11.1562 3.04406 11.8097 2.39062 12.6129 2.39062H12.8871C13.6903 2.39062 14.3438 3.04406 14.3438 3.84811C14.3438 4.23698 14.1923 4.60355 13.9174 4.87847L11.9531 6.84197V8.76562H11.1562C9.23259 8.76562 7.62291 10.137 7.25236 11.9531H6.375C3.29986 11.9531 0.796875 14.4553 0.796875 17.5312V18.3281V43.8281V44.625C0.796875 47.7001 3.29986 50.2031 6.375 50.2031H35.8594C37.6173 50.2031 39.0469 48.7727 39.0469 47.0148V42.2344H47.0156V32.6719H47.8125C49.1305 32.6719 50.2031 31.5993 50.2031 30.2812V27.0938C50.2031 25.7757 49.1305 24.7031 47.8125 24.7031ZM27.8627 24.4011L27.0938 25.1701L26.3248 24.4011L26.8308 18.3281H27.0938H27.3567L27.8627 24.4011ZM32.6719 42.2344V43.8281H29.4844V42.2344H32.6719ZM32.6719 40.6406H24.2864L26.6539 34.7214C26.8292 34.2824 27.442 34.1341 27.7998 34.4401L32.6719 38.6166V40.6406ZM27.8906 42.2344V43.8281H11.9531V18.3281H13.5469V39.8438C13.5469 41.1618 14.6195 42.2344 15.9375 42.2344H27.8906ZM10.3594 18.3281V43.8281H7.17188V18.3281H10.3594ZM15.9375 40.6406C15.4976 40.6406 15.1406 40.2836 15.1406 39.8438V33.5429C15.2976 33.3954 15.441 33.2353 15.5582 33.052L21.3116 24.1031L20.7355 29.2891L16.1949 40.6406H15.9375ZM15.1406 18.3281H19.2182C18.313 18.9656 17.5209 19.7752 16.8985 20.7379L15.1406 23.4536V18.3281ZM27.0938 8.76562C29.2907 8.76562 31.0781 10.553 31.0781 12.75C31.0781 14.947 29.2907 16.7344 27.0938 16.7344C24.8968 16.7344 23.1094 14.947 23.1094 12.75C23.1094 10.553 24.8968 8.76562 27.0938 8.76562ZM11.1562 10.3594H14.3438C15.3813 10.3594 16.2578 11.028 16.5878 11.9531H8.91305C9.24216 11.028 10.1187 10.3594 11.1562 10.3594ZM6.375 13.5469H21.5794C21.7579 14.7876 22.3412 15.8969 23.1978 16.7344H2.47111C2.84086 14.9183 4.45055 13.5469 6.375 13.5469ZM2.39062 43.8281V18.3281H5.57812V43.8281H2.39062ZM2.47111 45.4219H32.6719V47.0164C32.6719 47.5989 32.8408 48.1392 33.1149 48.6094H6.375C4.45055 48.6094 2.84086 47.238 2.47111 45.4219ZM37.4531 47.0148C37.4531 47.8946 36.7383 48.6094 35.8594 48.6094C34.9804 48.6094 34.2656 47.8954 34.2656 47.0164V37.8834L28.8373 33.2305C28.4174 32.8703 27.8811 32.6719 27.3272 32.6719C26.3734 32.6719 25.5279 33.2448 25.1741 34.1302L22.5699 40.6406H17.9114L22.2559 29.78L23.2026 21.5156H21.0805L15.1406 30.7554V26.3877L18.2365 21.6041C19.5633 19.5529 21.8145 18.3281 24.2569 18.3281H25.2315L24.6744 25.0051L27.0938 27.4237L29.5123 25.0051L28.9552 18.3281H30.2589C31.9953 18.3281 33.6767 17.8189 35.1215 16.8555L42.2137 12.1268C42.385 12.0137 42.5842 11.9531 42.7898 11.9531C43.3627 11.9531 43.8281 12.4185 43.8281 12.9915V13.362C43.8281 13.7102 43.6552 14.033 43.3659 14.2258L32.9396 21.177C32.2726 21.6208 31.875 22.3643 31.875 23.1652L31.8742 30.6478L36.618 34.7143C37.1487 35.1685 37.4531 35.8299 37.4531 36.5288V47.0148ZM37.6547 33.5038L33.468 29.9147L33.4688 23.1652C33.4688 22.8982 33.601 22.6504 33.8234 22.5022L40.6406 17.9576V18.3281V40.6406H39.0469V36.5288C39.0469 35.3637 38.5393 34.2608 37.6547 33.5038ZM45.4219 40.6406H42.2344V18.3281H45.4219V40.6406ZM48.6094 30.2812C48.6094 30.7211 48.2524 31.0781 47.8125 31.0781H47.0156V26.2969H47.8125C48.2524 26.2969 48.6094 26.6539 48.6094 27.0938V30.2812Z"/>
</symbol><symbol id="foundation" viewBox="0 0 48 50">
<path d="M46.3526 23.1699C46.3526 13.7987 40.7073 5.34963 32.049 1.76342C23.3911 -1.82279 13.4253 0.159271 6.79827 6.78626C-1.153 14.7443 -2.24109 27.2635 4.21917 36.4735C10.679 45.6836 22.8203 48.924 33.0105 44.1572L32.8132 48.8375C32.8132 48.849 32.8128 48.8605 32.8128 48.872C32.8116 49.3115 33.066 49.7112 33.4642 49.897C33.8616 50.0808 34.33 50.0133 34.6587 49.7243L39.0357 45.9531L43.4142 49.7255C43.7425 50.0137 44.2105 50.0812 44.6071 49.897C45.0053 49.7112 45.2597 49.3111 45.2585 48.8716C45.2585 48.8605 45.2585 48.849 45.2581 48.8375L44.8385 38.8783C48.4752 35.782 49.0305 30.3721 46.0993 26.6013C46.2676 25.4656 46.3522 24.3183 46.3526 23.1699ZM23.1823 44.7142C11.3027 44.7142 1.63808 35.05 1.63808 23.1699C1.63808 11.2903 11.3027 1.62567 23.1823 1.62567C35.062 1.62567 44.7266 11.2903 44.7266 23.1699C44.7266 23.8194 44.696 24.4696 44.6389 25.1155C43.0554 23.8337 41.0792 23.135 39.042 23.137C38.2151 23.1386 37.3922 23.2537 36.5967 23.4788V16.9629C36.5939 16.6092 36.3641 16.2968 36.0266 16.1892L24.2486 12.3914C24.0858 12.3394 23.9108 12.3394 23.748 12.3914L11.9652 16.1892C11.6274 16.2968 11.3971 16.6088 11.394 16.9629V33.0354C11.3968 33.3895 11.6266 33.7015 11.964 33.8091L23.7421 37.6069C23.9052 37.6593 24.0807 37.6593 24.2434 37.6069L30.7736 35.5013C31.3166 36.8046 32.159 37.9617 33.2328 38.8787L33.0887 42.305C30.0265 43.8877 26.6296 44.7142 23.1823 44.7142ZM30.0991 32.0799C30.0979 32.7079 30.163 33.3343 30.2932 33.9488L24.4018 35.8479V21.4836L34.9707 18.0792V24.1219C31.9664 25.6331 30.0785 28.7172 30.0991 32.0799ZM13.02 18.0796L22.7758 21.2216V35.5855L13.02 32.4435V18.0796ZM23.9953 19.9064L14.8686 16.9629L23.9953 14.0198L33.122 16.9629L23.9953 19.9064ZM43.5837 47.7256L39.7895 44.4561C39.3663 44.0564 38.705 44.0564 38.2818 44.4561L34.4876 47.7256L34.8147 39.9621C37.451 41.3765 40.6203 41.3765 43.2566 39.9621L43.5837 47.7256ZM39.0357 39.3968C34.9945 39.3968 31.7187 36.121 31.7187 32.0799C31.7187 28.0387 34.9945 24.763 39.0357 24.763C43.0768 24.763 46.3526 28.0387 46.3526 32.0799C46.3482 36.119 43.0748 39.3924 39.0357 39.3968Z"/>
</symbol><symbol id="full-stats" viewBox="0 0 48 48">
<path d="M28.5092 39.7334C28.1209 39.7334 27.8061 39.4187 27.8061 39.0303C27.8061 38.642 28.1209 38.3271 28.5092 38.3271H36.7759C37.1642 38.3271 37.479 38.642 37.479 39.0303C37.479 39.4187 37.1642 39.7334 36.7759 39.7334H28.5092Z"/>
<path d="M0.703125 14.9334C0.314812 14.9334 0 14.6187 0 14.2303C0 13.842 0.314812 13.5272 0.703125 13.5272H17.2364C17.6247 13.5272 17.9395 13.842 17.9395 14.2303C17.9395 14.6187 17.6247 14.9334 17.2364 14.9334H3.30047C2.13778 17.5815 1.50544 20.3894 1.41778 23.2969H23.2969V1.41712C15.8955 1.64419 9.11438 5.448 5.05069 11.6905C4.83881 12.016 4.40306 12.1081 4.07784 11.8962C3.75244 11.6843 3.66028 11.2488 3.87216 10.9234C8.32463 4.08347 15.8491 0 24 0C30.4106 0 36.4375 2.49647 40.9706 7.02938C45.5035 11.5625 48 17.5894 48 24C48 30.0431 45.7463 35.8171 41.6542 40.2583C41.5156 40.4088 41.3266 40.485 41.1369 40.485C40.9667 40.485 40.7958 40.4235 40.6607 40.299C40.3751 40.0358 40.3569 39.5911 40.62 39.3054C44.4723 35.1246 46.5938 29.689 46.5938 24C46.5938 18.2 44.422 12.7343 40.4649 8.52938L24.4972 24.4972C24.3653 24.6291 24.1865 24.7031 24 24.7031H1.41816C1.59347 30.4746 3.9226 35.875 8.02378 39.9762C12.2912 44.2436 17.9649 46.5938 24 46.5938C28.0708 46.5938 31.9814 45.527 35.4364 43.4909H28.5091C28.1208 43.4909 27.806 43.1761 27.806 42.7878C27.806 42.3995 28.1208 42.0847 28.5091 42.0847H45.0424C45.4307 42.0847 45.7455 42.3995 45.7455 42.7878C45.7455 43.1761 45.4307 43.4909 45.0424 43.4909H38.0047C33.9074 46.4409 29.0707 48 24 48C17.5894 48 11.5625 45.5035 7.02938 40.9706C2.49638 36.4375 0 30.4106 0 24C0 20.8529 0.597374 17.8086 1.77347 14.9334H0.703125ZM35.3545 4.45753L26.9056 20.1L39.4705 7.53506C38.2044 6.34359 36.824 5.3145 35.3545 4.45753ZM34.1187 3.78638C31.2208 2.33222 28.0234 1.51903 24.7031 1.41816V21.2186L34.1187 3.78638Z"/>
<path d="M17.2363 9.76953C17.6246 9.76953 17.9395 10.0842 17.9395 10.4727C17.9395 10.861 17.6246 11.1758 17.2363 11.1758H8.96964C8.58132 11.1758 8.26651 10.861 8.26651 10.4727C8.26651 10.0842 8.58132 9.76953 8.96964 9.76953H17.2363Z"/>
</symbol><symbol id="scheme" viewBox="0 0 48 48">
<style type="text/css">
	.st0{clip-path:url(#SVGID_2_);}
	.st1{fill:#0C4857;}
</style>
    <g>
	
        <clipPath id="SVGID_2_">
		<use xlink:href="#SVGID_1_" style="overflow:visible;"/>
	</clipPath>
        <g class="st0">
		<path class="st1" d="M47.3,34.3c0.4,0,0.7-0.3,0.7-0.7v-5.7c0-0.4-0.3-0.7-0.7-0.7h-0.8c-0.4,0-0.7,0.3-0.7,0.7s0.3,0.7,0.7,0.7
			h0.1v4.3h-9v-4.3h5.6c0.4,0,0.7-0.3,0.7-0.7s-0.3-0.7-0.7-0.7h-0.4v-3.1c0-0.4-0.3-0.7-0.7-0.7H24.7v-2.6H32
			c0.4,0,0.7-0.3,0.7-0.7v-4.2c0-2.5-2-4.5-4.5-4.5h-0.5c1.1-1,1.8-2.4,1.8-4C29.4,4.4,27,2,24,2s-5.4,2.4-5.4,5.4
			c0,1.6,0.7,3,1.8,4h-0.5c-2.5,0-4.5,2-4.5,4.5v4.2c0,0.4,0.3,0.7,0.7,0.7h7.3v2.6H5.9c-0.4,0-0.7,0.3-0.7,0.7v3.1H4.8
			c-0.4,0-0.7,0.3-0.7,0.7s0.3,0.7,0.7,0.7h5.6v4.3h-9v-4.3h0.1c0.4,0,0.7-0.3,0.7-0.7s-0.3-0.7-0.7-0.7H0.7c-0.4,0-0.7,0.3-0.7,0.7
			v5.7c0,0.4,0.3,0.7,0.7,0.7h4.5v4.7H0.7c-0.4,0-0.7,0.3-0.7,0.7v5.7C0,45.7,0.3,46,0.7,46h10.4c0.4,0,0.7-0.3,0.7-0.7v-5.7
			c0-0.4-0.3-0.7-0.7-0.7H6.6v-4.7h4.5c0.4,0,0.7-0.3,0.7-0.7v-5.7c0-0.4-0.3-0.7-0.7-0.7H6.6v-2.4h16.7v2.4h-4.5
			c-0.4,0-0.7,0.3-0.7,0.7v5.7c0,0.4,0.3,0.7,0.7,0.7h4.5v4.7h-4.5c-0.4,0-0.7,0.3-0.7,0.7v5.7c0,0.4,0.3,0.7,0.7,0.7h3.6
			c0.4,0,0.7-0.3,0.7-0.7c0-0.4-0.3-0.7-0.7-0.7h-2.9v-4.3h9v4.3h-2.9c-0.4,0-0.7,0.3-0.7,0.7c0,0.4,0.3,0.7,0.7,0.7h3.6
			c0.4,0,0.7-0.3,0.7-0.7v-5.7c0-0.4-0.3-0.7-0.7-0.7h-4.5v-4.7h4.5c0.4,0,0.7-0.3,0.7-0.7v-5.7c0-0.4-0.3-0.7-0.7-0.7h-4.5v-2.4
			h16.7v2.4h-4.5c-0.4,0-0.7,0.3-0.7,0.7v5.7c0,0.4,0.3,0.7,0.7,0.7h4.5v4.7h-4.5c-0.4,0-0.7,0.3-0.7,0.7v5.7c0,0.4,0.3,0.7,0.7,0.7
			h10.4c0.4,0,0.7-0.3,0.7-0.7v-5.7c0-0.4-0.3-0.7-0.7-0.7h-4.5v-4.7H47.3z M20,7.4c0-2.2,1.8-4,4-4s4,1.8,4,4c0,2.2-1.8,4-4,4
			S20,9.6,20,7.4z M16.7,15.9c0-1.7,1.4-3.1,3.1-3.1h8.3c1.7,0,3.1,1.4,3.1,3.1v3.5h-2.6v-1.2c0-0.4-0.3-0.7-0.7-0.7
			c-0.4,0-0.7,0.3-0.7,0.7v1.2h-6.5v-1.2c0-0.4-0.3-0.7-0.7-0.7c-0.4,0-0.7,0.3-0.7,0.7v1.2h-2.6L16.7,15.9L16.7,15.9z M10.4,44.6
			h-9v-4.3h9V44.6z M28.5,32.9h-9v-4.3h9V32.9z M46.6,44.6h-9v-4.3h9V44.6z"/>
	</g>
</g>
</symbol><symbol id="stats" viewBox="0 0 48 48">
<path d="M36.0116 11.7239L31.7419 9.16211L27.4723 11.7239L28.2697 13.0509L30.9677 11.432V23.2261H23.2258V30.968H15.4839V38.71H7.74194V46.4519H0V48.0003H9.29032V40.2584H17.0323V32.5164H24.7742V24.7745H32.5161V11.432L35.2142 13.0509L36.0116 11.7239Z"/>
<path d="M44.5997 8.4689C46.5104 8.23277 47.9999 6.61858 47.9999 4.64516V0H44.9032H44.129H37.9354H37.1612H34.0645V4.64516C34.0645 6.61858 35.554 8.23277 37.4647 8.4689C37.9548 9.62942 38.9961 10.5035 40.258 10.7605V15.4839H34.0645V17.0323H47.9999V15.4839H41.8064V10.7605C43.0691 10.5027 44.1096 9.62942 44.5997 8.4689ZM44.9032 1.54839H46.4516V4.64516C46.4516 5.65316 45.802 6.50477 44.9032 6.82529V1.54839ZM37.1612 6.82529C36.2616 6.50477 35.6128 5.65316 35.6128 4.64516V1.54839H37.1612V6.82529ZM41.0322 9.29032C39.7517 9.29032 38.7096 8.24826 38.7096 6.96774V1.54839H43.3548V6.96774C43.3548 8.24826 42.3127 9.29032 41.0322 9.29032Z"/>
<path d="M10.8386 48.0002H17.0322V41.8066H10.8386V48.0002ZM12.387 43.355H15.4838V46.4518H12.387V43.355Z"/>
<path d="M18.5806 47.9999H24.7741V34.0645H18.5806V47.9999ZM20.129 35.6128H23.2257V46.4516H20.129V35.6128Z"/>
<path d="M26.3225 47.9997H32.5161V26.3223H26.3225V47.9997ZM27.8709 27.8707H30.9677V46.4513H27.8709V27.8707Z"/>
<path d="M34.0645 48.0004H40.258V18.5811H34.0645V48.0004ZM35.6128 20.1294H38.7096V46.452H35.6128V20.1294Z"/>
<path d="M41.8064 48.0004H48V18.5811H41.8064V48.0004ZM43.3548 20.1294H46.4516V46.452H43.3548V20.1294Z"/>
<path d="M3.09677 25.5484C4.80465 25.5484 6.19355 24.1595 6.19355 22.4516C6.19355 21.4134 5.67561 20.4983 4.88981 19.9363L8.6911 13.6003C9.10684 13.8077 9.56903 13.9355 10.0645 13.9355C10.6846 13.9355 11.2606 13.7481 11.7453 13.433L15.8547 16.368C15.6255 16.8 15.4839 17.2846 15.4839 17.8065C15.4839 19.5143 16.8728 20.9032 18.5806 20.9032C20.2885 20.9032 21.6774 19.5143 21.6774 17.8065C21.6774 16.889 21.2694 16.073 20.6338 15.5056L25.6428 6.11303C25.8627 6.16258 26.0888 6.19355 26.3226 6.19355C28.0305 6.19355 29.4194 4.80465 29.4194 3.09677C29.4194 1.3889 28.0305 0 26.3226 0C24.6147 0 23.2258 1.3889 23.2258 3.09677C23.2258 4.01419 23.6338 4.83019 24.2694 5.39768L19.2604 14.7902C19.0405 14.7406 18.8145 14.7097 18.5806 14.7097C17.9605 14.7097 17.3845 14.897 16.8999 15.2121L12.7905 12.2772C13.0196 11.8452 13.1613 11.3605 13.1613 10.8387C13.1613 9.13084 11.7724 7.74194 10.0645 7.74194C8.35665 7.74194 6.96774 9.13084 6.96774 10.8387C6.96774 11.4813 7.16516 12.0782 7.50116 12.5737L3.41342 19.3866C3.30813 19.3757 3.20516 19.3548 3.09677 19.3548C1.3889 19.3548 0 20.7437 0 22.4516C0 24.1595 1.3889 25.5484 3.09677 25.5484ZM26.3226 1.54839C27.1757 1.54839 27.871 2.24361 27.871 3.09677C27.871 3.94994 27.1757 4.64516 26.3226 4.64516C25.4686 4.64516 24.7742 3.94994 24.7742 3.09677C24.7742 2.24361 25.4686 1.54839 26.3226 1.54839ZM18.5806 16.2581C19.4338 16.2581 20.129 16.9525 20.129 17.8065C20.129 18.6604 19.4338 19.3548 18.5806 19.3548C17.7267 19.3548 17.0323 18.6604 17.0323 17.8065C17.0323 16.9525 17.7267 16.2581 18.5806 16.2581ZM10.0645 9.29032C10.9177 9.29032 11.6129 9.98555 11.6129 10.8387C11.6129 11.6919 10.9177 12.3871 10.0645 12.3871C9.21058 12.3871 8.51613 11.6926 8.51613 10.8387C8.51613 9.98478 9.21058 9.29032 10.0645 9.29032ZM3.09677 20.9032C3.94994 20.9032 4.64516 21.5977 4.64516 22.4516C4.64516 23.3056 3.94994 24 3.09677 24C2.24284 24 1.54839 23.3056 1.54839 22.4516C1.54839 21.5977 2.24284 20.9032 3.09677 20.9032Z"/>
</symbol></svg>