<svg width="22" height="26" viewBox="0 0 22 26" fill="none" xmlns="http://www.w3.org/2000/svg">
    <path d="M20.7412 17.172C20.0501 19.0452 19.0048 20.6739 17.634 22.0125C16.0737 23.5361 14.0307 24.7467 11.5615 25.6104C11.4804 25.6386 11.3959 25.6618 11.3109 25.6788C11.1987 25.701 11.0845 25.713 10.9713 25.7145H10.9492C10.8285 25.7145 10.7073 25.7024 10.587 25.6788C10.5021 25.6618 10.4187 25.6386 10.338 25.611C7.86589 24.7487 5.82026 23.5386 4.25842 22.0151C2.88707 20.6765 1.84199 19.0487 1.1518 17.1755C-0.103201 13.7697 -0.0317893 10.0179 0.0256933 7.00286L0.0266742 6.95656C0.0382493 6.7076 0.0457043 6.44608 0.0498243 6.1573C0.0708162 4.73946 1.1981 3.56646 2.61614 3.4874C5.57267 3.3224 7.85981 2.35815 9.81402 0.453373L9.83109 0.437678C10.1556 0.140063 10.5644 -0.00589935 10.9713 0.000182458C11.3637 0.00528332 11.7545 0.15105 12.0674 0.437678L12.0841 0.453373C14.0387 2.35815 16.3258 3.3224 19.2824 3.4874C20.7004 3.56646 21.8277 4.73946 21.8487 6.1573C21.8528 6.44805 21.8603 6.70917 21.8718 6.95656L21.8724 6.97618C21.9297 9.99686 22.0007 13.7562 20.7412 17.172Z"
          fill="#00DD80"/>
    <path d="M20.7411 17.1718C20.0499 19.045 19.0046 20.6737 17.6339 22.0123C16.0736 23.5359 14.0305 24.7466 11.5613 25.6102C11.4803 25.6384 11.3957 25.6616 11.3108 25.6787C11.1986 25.7008 11.0844 25.7128 10.9712 25.7144V0C11.3636 0.00510086 11.7544 0.150867 12.0673 0.437496L12.084 0.453191C14.0386 2.35797 16.3257 3.32222 19.2822 3.48721C20.7003 3.56628 21.8276 4.73928 21.8486 6.15712C21.8527 6.44786 21.8601 6.70899 21.8717 6.95638L21.8723 6.976C21.9296 9.99668 22.0006 13.756 20.7411 17.1718Z"
          fill="#00AA63"/>
    <path d="M17.3575 12.8578C17.3575 16.3839 14.4945 19.2541 10.9714 19.2667H10.9489C7.41535 19.2667 4.54004 16.3916 4.54004 12.8578C4.54004 9.32433 7.41535 6.44922 10.9489 6.44922H10.9714C14.4945 6.46177 17.3575 9.33198 17.3575 12.8578Z"
          fill="white"/>
    <path d="M17.3573 12.8578C17.3573 16.3839 14.4943 19.2541 10.9712 19.2667V6.44922C14.4943 6.46177 17.3573 9.33198 17.3573 12.8578Z"
          fill="#E1EBF0"/>
    <path d="M13.8576 11.934L10.9713 14.8207L10.3476 15.4444C10.2003 15.5917 10.0071 15.6653 9.81402 15.6653C9.62078 15.6653 9.42773 15.5917 9.2802 15.4444L7.93927 14.1029C7.64459 13.8082 7.64459 13.3309 7.93927 13.036C8.23355 12.7413 8.71146 12.7413 9.00613 13.036L9.81402 13.8439L12.7908 10.8671C13.0854 10.5723 13.5633 10.5723 13.8576 10.8671C14.1523 11.1618 14.1523 11.6397 13.8576 11.934Z"
          fill="#B4D2D7"/>
    <path d="M13.8575 11.934L10.9712 14.8207V12.6864L12.7906 10.8671C13.0853 10.5723 13.5632 10.5723 13.8575 10.8671C14.1522 11.1618 14.1522 11.6397 13.8575 11.934Z"
          fill="#6FA5AA"/>
</svg>
